solid
 facet normal  -3.3333333333e-01 6.6666666667e-01 -6.6666666667e-01
   outer loop
     vertex 0.0000000000e+00 0.0000000000e+00 0.0000000000e+00
     vertex 2.0000000000e+00 1.0000000000e+00 0.0000000000e+00
     vertex 2.0000000000e+00 0.0000000000e+00 -1.0000000000e+00
   endloop
 endfacet
 facet normal  -3.3333333333e-01 -6.6666666667e-01 -6.6666666667e-01
   outer loop
     vertex 2.0000000000e+00 0.0000000000e+00 -1.0000000000e+00
     vertex 2.0000000000e+00 -1.0000000000e+00 0.0000000000e+00
     vertex 0.0000000000e+00 0.0000000000e+00 0.0000000000e+00
   endloop
 endfacet
 facet normal  -3.3333333333e-01 -6.6666666667e-01 6.6666666667e-01
   outer loop
     vertex 0.0000000000e+00 0.0000000000e+00 0.0000000000e+00
     vertex 2.0000000000e+00 -1.0000000000e+00 0.0000000000e+00
     vertex 2.0000000000e+00 0.0000000000e+00 1.0000000000e+00
   endloop
 endfacet
 facet normal  -3.3333333333e-01 6.6666666667e-01 6.6666666667e-01
   outer loop
     vertex 2.0000000000e+00 0.0000000000e+00 1.0000000000e+00
     vertex 2.0000000000e+00 1.0000000000e+00 0.0000000000e+00
     vertex 0.0000000000e+00 0.0000000000e+00 0.0000000000e+00
   endloop
 endfacet
 facet normal  3.3333333333e-01 6.6666666667e-01 -6.6666666667e-01
   outer loop
     vertex 2.0000000000e+00 1.0000000000e+00 0.0000000000e+00
     vertex 4.0000000000e+00 0.0000000000e+00 0.0000000000e+00
     vertex 2.0000000000e+00 0.0000000000e+00 -1.0000000000e+00
   endloop
 endfacet
 facet normal  3.3333333333e-01 -6.6666666667e-01 -6.6666666667e-01
   outer loop
     vertex 2.0000000000e+00 0.0000000000e+00 -1.0000000000e+00
     vertex 4.0000000000e+00 0.0000000000e+00 0.0000000000e+00
     vertex 2.0000000000e+00 -1.0000000000e+00 0.0000000000e+00
   endloop
 endfacet
 facet normal  3.3333333333e-01 -6.6666666667e-01 6.6666666667e-01
   outer loop
     vertex 2.0000000000e+00 -1.0000000000e+00 0.0000000000e+00
     vertex 4.0000000000e+00 0.0000000000e+00 0.0000000000e+00
     vertex 2.0000000000e+00 0.0000000000e+00 1.0000000000e+00
   endloop
 endfacet
 facet normal  3.3333333333e-01 6.6666666667e-01 6.6666666667e-01
   outer loop
     vertex 2.0000000000e+00 0.0000000000e+00 1.0000000000e+00
     vertex 4.0000000000e+00 0.0000000000e+00 0.0000000000e+00
     vertex 2.0000000000e+00 1.0000000000e+00 0.0000000000e+00
   endloop
 endfacet
endsolid
