solid
 facet normal  -9.7877492940e-01 1.9781552552e-01 -5.3559830465e-02
   outer loop
     vertex 0.0000000000e+00 0.0000000000e+00 0.0000000000e+00
     vertex 7.8636949681e-02 3.8908915096e-01 0.0000000000e+00
     vertex 7.8636949681e-02 3.3593510774e-01 -1.9631680874e-01
   endloop
 endfacet
 facet normal  -9.7886141632e-01 1.4462075862e-01 -1.4462075862e-01
   outer loop
     vertex 0.0000000000e+00 0.0000000000e+00 0.0000000000e+00
     vertex 7.8636949681e-02 3.3593510774e-01 -1.9631680874e-01
     vertex 7.8636949681e-02 1.9631680874e-01 -3.3593510774e-01
   endloop
 endfacet
 facet normal  -9.7877492940e-01 5.3559830465e-02 -1.9781552552e-01
   outer loop
     vertex 0.0000000000e+00 0.0000000000e+00 0.0000000000e+00
     vertex 7.8636949681e-02 1.9631680874e-01 -3.3593510774e-01
     vertex 7.8636949681e-02 0.0000000000e+00 -3.8908915096e-01
   endloop
 endfacet
 facet normal  -9.7877492940e-01 -5.3559830465e-02 -1.9781552552e-01
   outer loop
     vertex 7.8636949681e-02 0.0000000000e+00 -3.8908915096e-01
     vertex 7.8636949681e-02 -1.9631680874e-01 -3.3593510774e-01
     vertex 0.0000000000e+00 0.0000000000e+00 0.0000000000e+00
   endloop
 endfacet
 facet normal  -9.7886141632e-01 -1.4462075862e-01 -1.4462075862e-01
   outer loop
     vertex 7.8636949681e-02 -1.9631680874e-01 -3.3593510774e-01
     vertex 7.8636949681e-02 -3.3593510774e-01 -1.9631680874e-01
     vertex 0.0000000000e+00 0.0000000000e+00 0.0000000000e+00
   endloop
 endfacet
 facet normal  -9.7877492940e-01 -1.9781552552e-01 -5.3559830465e-02
   outer loop
     vertex 7.8636949681e-02 -3.3593510774e-01 -1.9631680874e-01
     vertex 7.8636949681e-02 -3.8908915096e-01 0.0000000000e+00
     vertex 0.0000000000e+00 0.0000000000e+00 0.0000000000e+00
   endloop
 endfacet
 facet normal  -9.7877492940e-01 -1.9781552552e-01 5.3559830465e-02
   outer loop
     vertex 0.0000000000e+00 0.0000000000e+00 0.0000000000e+00
     vertex 7.8636949681e-02 -3.8908915096e-01 0.0000000000e+00
     vertex 7.8636949681e-02 -3.3593510774e-01 1.9631680874e-01
   endloop
 endfacet
 facet normal  -9.7886141632e-01 -1.4462075862e-01 1.4462075862e-01
   outer loop
     vertex 0.0000000000e+00 0.0000000000e+00 0.0000000000e+00
     vertex 7.8636949681e-02 -3.3593510774e-01 1.9631680874e-01
     vertex 7.8636949681e-02 -1.9631680874e-01 3.3593510774e-01
   endloop
 endfacet
 facet normal  -9.7877492940e-01 -5.3559830465e-02 1.9781552552e-01
   outer loop
     vertex 0.0000000000e+00 0.0000000000e+00 0.0000000000e+00
     vertex 7.8636949681e-02 -1.9631680874e-01 3.3593510774e-01
     vertex 7.8636949681e-02 0.0000000000e+00 3.8908915096e-01
   endloop
 endfacet
 facet normal  -9.7877492940e-01 5.3559830465e-02 1.9781552552e-01
   outer loop
     vertex 7.8636949681e-02 0.0000000000e+00 3.8908915096e-01
     vertex 7.8636949681e-02 1.9631680874e-01 3.3593510774e-01
     vertex 0.0000000000e+00 0.0000000000e+00 0.0000000000e+00
   endloop
 endfacet
 facet normal  -9.7886141632e-01 1.4462075862e-01 1.4462075862e-01
   outer loop
     vertex 7.8636949681e-02 1.9631680874e-01 3.3593510774e-01
     vertex 7.8636949681e-02 3.3593510774e-01 1.9631680874e-01
     vertex 0.0000000000e+00 0.0000000000e+00 0.0000000000e+00
   endloop
 endfacet
 facet normal  -9.7877492940e-01 1.9781552552e-01 5.3559830465e-02
   outer loop
     vertex 7.8636949681e-02 3.3593510774e-01 1.9631680874e-01
     vertex 7.8636949681e-02 3.8908915096e-01 0.0000000000e+00
     vertex 0.0000000000e+00 0.0000000000e+00 0.0000000000e+00
   endloop
 endfacet
 facet normal  -8.1971719037e-01 5.5286196180e-01 -1.4969094497e-01
   outer loop
     vertex 7.8636949681e-02 3.8908915096e-01 0.0000000000e+00
     vertex 2.9303186581e-01 7.0696813419e-01 0.0000000000e+00
     vertex 2.9303186581e-01 6.1038817386e-01 -3.5670418372e-01
   endloop
 endfacet
 facet normal  -8.1971719037e-01 5.5286196180e-01 -1.4969094497e-01
   outer loop
     vertex 7.8636949681e-02 3.8908915096e-01 0.0000000000e+00
     vertex 2.9303186581e-01 6.1038817386e-01 -3.5670418372e-01
     vertex 7.8636949681e-02 3.3593510774e-01 -1.9631680874e-01
   endloop
 endfacet
 facet normal  -8.2028347735e-01 4.0443480116e-01 -4.0443480116e-01
   outer loop
     vertex 7.8636949681e-02 3.3593510774e-01 -1.9631680874e-01
     vertex 2.9303186581e-01 6.1038817386e-01 -3.5670418372e-01
     vertex 2.9303186581e-01 3.5670418372e-01 -6.1038817386e-01
   endloop
 endfacet
 facet normal  -8.2028347735e-01 4.0443480116e-01 -4.0443480116e-01
   outer loop
     vertex 7.8636949681e-02 3.3593510774e-01 -1.9631680874e-01
     vertex 2.9303186581e-01 3.5670418372e-01 -6.1038817386e-01
     vertex 7.8636949681e-02 1.9631680874e-01 -3.3593510774e-01
   endloop
 endfacet
 facet normal  -8.1971719037e-01 1.4969094497e-01 -5.5286196180e-01
   outer loop
     vertex 7.8636949681e-02 1.9631680874e-01 -3.3593510774e-01
     vertex 2.9303186581e-01 3.5670418372e-01 -6.1038817386e-01
     vertex 2.9303186581e-01 0.0000000000e+00 -7.0696813419e-01
   endloop
 endfacet
 facet normal  -8.1971719037e-01 1.4969094497e-01 -5.5286196180e-01
   outer loop
     vertex 7.8636949681e-02 1.9631680874e-01 -3.3593510774e-01
     vertex 2.9303186581e-01 0.0000000000e+00 -7.0696813419e-01
     vertex 7.8636949681e-02 0.0000000000e+00 -3.8908915096e-01
   endloop
 endfacet
 facet normal  -8.1971719037e-01 -1.4969094497e-01 -5.5286196180e-01
   outer loop
     vertex 7.8636949681e-02 0.0000000000e+00 -3.8908915096e-01
     vertex 2.9303186581e-01 0.0000000000e+00 -7.0696813419e-01
     vertex 7.8636949681e-02 -1.9631680874e-01 -3.3593510774e-01
   endloop
 endfacet
 facet normal  -8.1971719037e-01 -1.4969094497e-01 -5.5286196180e-01
   outer loop
     vertex 2.9303186581e-01 0.0000000000e+00 -7.0696813419e-01
     vertex 2.9303186581e-01 -3.5670418372e-01 -6.1038817386e-01
     vertex 7.8636949681e-02 -1.9631680874e-01 -3.3593510774e-01
   endloop
 endfacet
 facet normal  -8.2028347735e-01 -4.0443480116e-01 -4.0443480116e-01
   outer loop
     vertex 7.8636949681e-02 -1.9631680874e-01 -3.3593510774e-01
     vertex 2.9303186581e-01 -3.5670418372e-01 -6.1038817386e-01
     vertex 7.8636949681e-02 -3.3593510774e-01 -1.9631680874e-01
   endloop
 endfacet
 facet normal  -8.2028347735e-01 -4.0443480116e-01 -4.0443480116e-01
   outer loop
     vertex 2.9303186581e-01 -3.5670418372e-01 -6.1038817386e-01
     vertex 2.9303186581e-01 -6.1038817386e-01 -3.5670418372e-01
     vertex 7.8636949681e-02 -3.3593510774e-01 -1.9631680874e-01
   endloop
 endfacet
 facet normal  -8.1971719037e-01 -5.5286196180e-01 -1.4969094497e-01
   outer loop
     vertex 7.8636949681e-02 -3.3593510774e-01 -1.9631680874e-01
     vertex 2.9303186581e-01 -6.1038817386e-01 -3.5670418372e-01
     vertex 7.8636949681e-02 -3.8908915096e-01 0.0000000000e+00
   endloop
 endfacet
 facet normal  -8.1971719037e-01 -5.5286196180e-01 -1.4969094497e-01
   outer loop
     vertex 2.9303186581e-01 -6.1038817386e-01 -3.5670418372e-01
     vertex 2.9303186581e-01 -7.0696813419e-01 0.0000000000e+00
     vertex 7.8636949681e-02 -3.8908915096e-01 0.0000000000e+00
   endloop
 endfacet
 facet normal  -8.1971719037e-01 -5.5286196180e-01 1.4969094497e-01
   outer loop
     vertex 7.8636949681e-02 -3.8908915096e-01 0.0000000000e+00
     vertex 2.9303186581e-01 -7.0696813419e-01 0.0000000000e+00
     vertex 2.9303186581e-01 -6.1038817386e-01 3.5670418372e-01
   endloop
 endfacet
 facet normal  -8.1971719037e-01 -5.5286196180e-01 1.4969094497e-01
   outer loop
     vertex 7.8636949681e-02 -3.8908915096e-01 0.0000000000e+00
     vertex 2.9303186581e-01 -6.1038817386e-01 3.5670418372e-01
     vertex 7.8636949681e-02 -3.3593510774e-01 1.9631680874e-01
   endloop
 endfacet
 facet normal  -8.2028347735e-01 -4.0443480116e-01 4.0443480116e-01
   outer loop
     vertex 7.8636949681e-02 -3.3593510774e-01 1.9631680874e-01
     vertex 2.9303186581e-01 -6.1038817386e-01 3.5670418372e-01
     vertex 2.9303186581e-01 -3.5670418372e-01 6.1038817386e-01
   endloop
 endfacet
 facet normal  -8.2028347735e-01 -4.0443480116e-01 4.0443480116e-01
   outer loop
     vertex 7.8636949681e-02 -3.3593510774e-01 1.9631680874e-01
     vertex 2.9303186581e-01 -3.5670418372e-01 6.1038817386e-01
     vertex 7.8636949681e-02 -1.9631680874e-01 3.3593510774e-01
   endloop
 endfacet
 facet normal  -8.1971719037e-01 -1.4969094497e-01 5.5286196180e-01
   outer loop
     vertex 7.8636949681e-02 -1.9631680874e-01 3.3593510774e-01
     vertex 2.9303186581e-01 -3.5670418372e-01 6.1038817386e-01
     vertex 2.9303186581e-01 0.0000000000e+00 7.0696813419e-01
   endloop
 endfacet
 facet normal  -8.1971719037e-01 -1.4969094497e-01 5.5286196180e-01
   outer loop
     vertex 7.8636949681e-02 -1.9631680874e-01 3.3593510774e-01
     vertex 2.9303186581e-01 0.0000000000e+00 7.0696813419e-01
     vertex 7.8636949681e-02 0.0000000000e+00 3.8908915096e-01
   endloop
 endfacet
 facet normal  -8.1971719037e-01 1.4969094497e-01 5.5286196180e-01
   outer loop
     vertex 7.8636949681e-02 0.0000000000e+00 3.8908915096e-01
     vertex 2.9303186581e-01 0.0000000000e+00 7.0696813419e-01
     vertex 7.8636949681e-02 1.9631680874e-01 3.3593510774e-01
   endloop
 endfacet
 facet normal  -8.1971719037e-01 1.4969094497e-01 5.5286196180e-01
   outer loop
     vertex 2.9303186581e-01 0.0000000000e+00 7.0696813419e-01
     vertex 2.9303186581e-01 3.5670418372e-01 6.1038817386e-01
     vertex 7.8636949681e-02 1.9631680874e-01 3.3593510774e-01
   endloop
 endfacet
 facet normal  -8.2028347735e-01 4.0443480116e-01 4.0443480116e-01
   outer loop
     vertex 7.8636949681e-02 1.9631680874e-01 3.3593510774e-01
     vertex 2.9303186581e-01 3.5670418372e-01 6.1038817386e-01
     vertex 7.8636949681e-02 3.3593510774e-01 1.9631680874e-01
   endloop
 endfacet
 facet normal  -8.2028347735e-01 4.0443480116e-01 4.0443480116e-01
   outer loop
     vertex 2.9303186581e-01 3.5670418372e-01 6.1038817386e-01
     vertex 2.9303186581e-01 6.1038817386e-01 3.5670418372e-01
     vertex 7.8636949681e-02 3.3593510774e-01 1.9631680874e-01
   endloop
 endfacet
 facet normal  -8.1971719037e-01 5.5286196180e-01 1.4969094497e-01
   outer loop
     vertex 7.8636949681e-02 3.3593510774e-01 1.9631680874e-01
     vertex 2.9303186581e-01 6.1038817386e-01 3.5670418372e-01
     vertex 7.8636949681e-02 3.8908915096e-01 0.0000000000e+00
   endloop
 endfacet
 facet normal  -8.1971719037e-01 5.5286196180e-01 1.4969094497e-01
   outer loop
     vertex 2.9303186581e-01 6.1038817386e-01 3.5670418372e-01
     vertex 2.9303186581e-01 7.0696813419e-01 0.0000000000e+00
     vertex 7.8636949681e-02 3.8908915096e-01 0.0000000000e+00
   endloop
 endfacet
 facet normal  -5.4558555175e-01 8.0892860512e-01 -2.1902264160e-01
   outer loop
     vertex 2.9303186581e-01 7.0696813419e-01 0.0000000000e+00
     vertex 6.1091084904e-01 9.2136305032e-01 0.0000000000e+00
     vertex 6.1091084904e-01 7.9549428405e-01 -4.6487817326e-01
   endloop
 endfacet
 facet normal  -5.4558555175e-01 8.0892860512e-01 -2.1902264160e-01
   outer loop
     vertex 2.9303186581e-01 7.0696813419e-01 0.0000000000e+00
     vertex 6.1091084904e-01 7.9549428405e-01 -4.6487817326e-01
     vertex 2.9303186581e-01 6.1038817386e-01 -3.5670418372e-01
   endloop
 endfacet
 facet normal  -5.4639341208e-01 5.9222218771e-01 -5.9222218771e-01
   outer loop
     vertex 2.9303186581e-01 6.1038817386e-01 -3.5670418372e-01
     vertex 6.1091084904e-01 7.9549428405e-01 -4.6487817326e-01
     vertex 6.1091084904e-01 4.6487817326e-01 -7.9549428405e-01
   endloop
 endfacet
 facet normal  -5.4639341208e-01 5.9222218771e-01 -5.9222218771e-01
   outer loop
     vertex 2.9303186581e-01 6.1038817386e-01 -3.5670418372e-01
     vertex 6.1091084904e-01 4.6487817326e-01 -7.9549428405e-01
     vertex 2.9303186581e-01 3.5670418372e-01 -6.1038817386e-01
   endloop
 endfacet
 facet normal  -5.4558555175e-01 2.1902264160e-01 -8.0892860512e-01
   outer loop
     vertex 2.9303186581e-01 3.5670418372e-01 -6.1038817386e-01
     vertex 6.1091084904e-01 4.6487817326e-01 -7.9549428405e-01
     vertex 6.1091084904e-01 0.0000000000e+00 -9.2136305032e-01
   endloop
 endfacet
 facet normal  -5.4558555175e-01 2.1902264160e-01 -8.0892860512e-01
   outer loop
     vertex 2.9303186581e-01 3.5670418372e-01 -6.1038817386e-01
     vertex 6.1091084904e-01 0.0000000000e+00 -9.2136305032e-01
     vertex 2.9303186581e-01 0.0000000000e+00 -7.0696813419e-01
   endloop
 endfacet
 facet normal  -5.4558555175e-01 -2.1902264160e-01 -8.0892860512e-01
   outer loop
     vertex 2.9303186581e-01 0.0000000000e+00 -7.0696813419e-01
     vertex 6.1091084904e-01 0.0000000000e+00 -9.2136305032e-01
     vertex 2.9303186581e-01 -3.5670418372e-01 -6.1038817386e-01
   endloop
 endfacet
 facet normal  -5.4558555175e-01 -2.1902264160e-01 -8.0892860512e-01
   outer loop
     vertex 6.1091084904e-01 0.0000000000e+00 -9.2136305032e-01
     vertex 6.1091084904e-01 -4.6487817326e-01 -7.9549428405e-01
     vertex 2.9303186581e-01 -3.5670418372e-01 -6.1038817386e-01
   endloop
 endfacet
 facet normal  -5.4639341208e-01 -5.9222218771e-01 -5.9222218771e-01
   outer loop
     vertex 2.9303186581e-01 -3.5670418372e-01 -6.1038817386e-01
     vertex 6.1091084904e-01 -4.6487817326e-01 -7.9549428405e-01
     vertex 2.9303186581e-01 -6.1038817386e-01 -3.5670418372e-01
   endloop
 endfacet
 facet normal  -5.4639341208e-01 -5.9222218771e-01 -5.9222218771e-01
   outer loop
     vertex 6.1091084904e-01 -4.6487817326e-01 -7.9549428405e-01
     vertex 6.1091084904e-01 -7.9549428405e-01 -4.6487817326e-01
     vertex 2.9303186581e-01 -6.1038817386e-01 -3.5670418372e-01
   endloop
 endfacet
 facet normal  -5.4558555175e-01 -8.0892860512e-01 -2.1902264160e-01
   outer loop
     vertex 2.9303186581e-01 -6.1038817386e-01 -3.5670418372e-01
     vertex 6.1091084904e-01 -7.9549428405e-01 -4.6487817326e-01
     vertex 2.9303186581e-01 -7.0696813419e-01 0.0000000000e+00
   endloop
 endfacet
 facet normal  -5.4558555175e-01 -8.0892860512e-01 -2.1902264160e-01
   outer loop
     vertex 6.1091084904e-01 -7.9549428405e-01 -4.6487817326e-01
     vertex 6.1091084904e-01 -9.2136305032e-01 0.0000000000e+00
     vertex 2.9303186581e-01 -7.0696813419e-01 0.0000000000e+00
   endloop
 endfacet
 facet normal  -5.4558555175e-01 -8.0892860512e-01 2.1902264160e-01
   outer loop
     vertex 2.9303186581e-01 -7.0696813419e-01 0.0000000000e+00
     vertex 6.1091084904e-01 -9.2136305032e-01 0.0000000000e+00
     vertex 6.1091084904e-01 -7.9549428405e-01 4.6487817326e-01
   endloop
 endfacet
 facet normal  -5.4558555175e-01 -8.0892860512e-01 2.1902264160e-01
   outer loop
     vertex 2.9303186581e-01 -7.0696813419e-01 0.0000000000e+00
     vertex 6.1091084904e-01 -7.9549428405e-01 4.6487817326e-01
     vertex 2.9303186581e-01 -6.1038817386e-01 3.5670418372e-01
   endloop
 endfacet
 facet normal  -5.4639341208e-01 -5.9222218771e-01 5.9222218771e-01
   outer loop
     vertex 2.9303186581e-01 -6.1038817386e-01 3.5670418372e-01
     vertex 6.1091084904e-01 -7.9549428405e-01 4.6487817326e-01
     vertex 6.1091084904e-01 -4.6487817326e-01 7.9549428405e-01
   endloop
 endfacet
 facet normal  -5.4639341208e-01 -5.9222218771e-01 5.9222218771e-01
   outer loop
     vertex 2.9303186581e-01 -6.1038817386e-01 3.5670418372e-01
     vertex 6.1091084904e-01 -4.6487817326e-01 7.9549428405e-01
     vertex 2.9303186581e-01 -3.5670418372e-01 6.1038817386e-01
   endloop
 endfacet
 facet normal  -5.4558555175e-01 -2.1902264160e-01 8.0892860512e-01
   outer loop
     vertex 2.9303186581e-01 -3.5670418372e-01 6.1038817386e-01
     vertex 6.1091084904e-01 -4.6487817326e-01 7.9549428405e-01
     vertex 6.1091084904e-01 0.0000000000e+00 9.2136305032e-01
   endloop
 endfacet
 facet normal  -5.4558555175e-01 -2.1902264160e-01 8.0892860512e-01
   outer loop
     vertex 2.9303186581e-01 -3.5670418372e-01 6.1038817386e-01
     vertex 6.1091084904e-01 0.0000000000e+00 9.2136305032e-01
     vertex 2.9303186581e-01 0.0000000000e+00 7.0696813419e-01
   endloop
 endfacet
 facet normal  -5.4558555175e-01 2.1902264160e-01 8.0892860512e-01
   outer loop
     vertex 2.9303186581e-01 0.0000000000e+00 7.0696813419e-01
     vertex 6.1091084904e-01 0.0000000000e+00 9.2136305032e-01
     vertex 2.9303186581e-01 3.5670418372e-01 6.1038817386e-01
   endloop
 endfacet
 facet normal  -5.4558555175e-01 2.1902264160e-01 8.0892860512e-01
   outer loop
     vertex 6.1091084904e-01 0.0000000000e+00 9.2136305032e-01
     vertex 6.1091084904e-01 4.6487817326e-01 7.9549428405e-01
     vertex 2.9303186581e-01 3.5670418372e-01 6.1038817386e-01
   endloop
 endfacet
 facet normal  -5.4639341208e-01 5.9222218771e-01 5.9222218771e-01
   outer loop
     vertex 2.9303186581e-01 3.5670418372e-01 6.1038817386e-01
     vertex 6.1091084904e-01 4.6487817326e-01 7.9549428405e-01
     vertex 2.9303186581e-01 6.1038817386e-01 3.5670418372e-01
   endloop
 endfacet
 facet normal  -5.4639341208e-01 5.9222218771e-01 5.9222218771e-01
   outer loop
     vertex 6.1091084904e-01 4.6487817326e-01 7.9549428405e-01
     vertex 6.1091084904e-01 7.9549428405e-01 4.6487817326e-01
     vertex 2.9303186581e-01 6.1038817386e-01 3.5670418372e-01
   endloop
 endfacet
 facet normal  -5.4558555175e-01 8.0892860512e-01 2.1902264160e-01
   outer loop
     vertex 2.9303186581e-01 6.1038817386e-01 3.5670418372e-01
     vertex 6.1091084904e-01 7.9549428405e-01 4.6487817326e-01
     vertex 2.9303186581e-01 7.0696813419e-01 0.0000000000e+00
   endloop
 endfacet
 facet normal  -5.4558555175e-01 8.0892860512e-01 2.1902264160e-01
   outer loop
     vertex 6.1091084904e-01 7.9549428405e-01 4.6487817326e-01
     vertex 6.1091084904e-01 9.2136305032e-01 0.0000000000e+00
     vertex 2.9303186581e-01 7.0696813419e-01 0.0000000000e+00
   endloop
 endfacet
 facet normal  -1.9147171081e-01 9.4738625666e-01 -2.5651094452e-01
   outer loop
     vertex 6.1091084904e-01 9.2136305032e-01 0.0000000000e+00
     vertex 1.0000000000e+00 1.0000000000e+00 0.0000000000e+00
     vertex 1.0000000000e+00 8.6338852396e-01 -5.0455482570e-01
   endloop
 endfacet
 facet normal  -1.9147171081e-01 9.4738625666e-01 -2.5651094452e-01
   outer loop
     vertex 6.1091084904e-01 9.2136305032e-01 0.0000000000e+00
     vertex 1.0000000000e+00 8.6338852396e-01 -5.0455482570e-01
     vertex 6.1091084904e-01 7.9549428405e-01 -4.6487817326e-01
   endloop
 endfacet
 facet normal  -1.9186090885e-01 6.9397024131e-01 -6.9397024131e-01
   outer loop
     vertex 6.1091084904e-01 7.9549428405e-01 -4.6487817326e-01
     vertex 1.0000000000e+00 8.6338852396e-01 -5.0455482570e-01
     vertex 1.0000000000e+00 5.0455482570e-01 -8.6338852396e-01
   endloop
 endfacet
 facet normal  -1.9186090885e-01 6.9397024131e-01 -6.9397024131e-01
   outer loop
     vertex 6.1091084904e-01 7.9549428405e-01 -4.6487817326e-01
     vertex 1.0000000000e+00 5.0455482570e-01 -8.6338852396e-01
     vertex 6.1091084904e-01 4.6487817326e-01 -7.9549428405e-01
   endloop
 endfacet
 facet normal  -1.9147171081e-01 2.5651094452e-01 -9.4738625666e-01
   outer loop
     vertex 6.1091084904e-01 4.6487817326e-01 -7.9549428405e-01
     vertex 1.0000000000e+00 5.0455482570e-01 -8.6338852396e-01
     vertex 1.0000000000e+00 0.0000000000e+00 -1.0000000000e+00
   endloop
 endfacet
 facet normal  -1.9147171081e-01 2.5651094452e-01 -9.4738625666e-01
   outer loop
     vertex 6.1091084904e-01 4.6487817326e-01 -7.9549428405e-01
     vertex 1.0000000000e+00 0.0000000000e+00 -1.0000000000e+00
     vertex 6.1091084904e-01 0.0000000000e+00 -9.2136305032e-01
   endloop
 endfacet
 facet normal  -1.9147171081e-01 -2.5651094452e-01 -9.4738625666e-01
   outer loop
     vertex 6.1091084904e-01 0.0000000000e+00 -9.2136305032e-01
     vertex 1.0000000000e+00 0.0000000000e+00 -1.0000000000e+00
     vertex 6.1091084904e-01 -4.6487817326e-01 -7.9549428405e-01
   endloop
 endfacet
 facet normal  -1.9147171081e-01 -2.5651094452e-01 -9.4738625666e-01
   outer loop
     vertex 1.0000000000e+00 0.0000000000e+00 -1.0000000000e+00
     vertex 1.0000000000e+00 -5.0455482570e-01 -8.6338852396e-01
     vertex 6.1091084904e-01 -4.6487817326e-01 -7.9549428405e-01
   endloop
 endfacet
 facet normal  -1.9186090885e-01 -6.9397024131e-01 -6.9397024131e-01
   outer loop
     vertex 6.1091084904e-01 -4.6487817326e-01 -7.9549428405e-01
     vertex 1.0000000000e+00 -5.0455482570e-01 -8.6338852396e-01
     vertex 6.1091084904e-01 -7.9549428405e-01 -4.6487817326e-01
   endloop
 endfacet
 facet normal  -1.9186090885e-01 -6.9397024131e-01 -6.9397024131e-01
   outer loop
     vertex 1.0000000000e+00 -5.0455482570e-01 -8.6338852396e-01
     vertex 1.0000000000e+00 -8.6338852396e-01 -5.0455482570e-01
     vertex 6.1091084904e-01 -7.9549428405e-01 -4.6487817326e-01
   endloop
 endfacet
 facet normal  -1.9147171081e-01 -9.4738625666e-01 -2.5651094452e-01
   outer loop
     vertex 6.1091084904e-01 -7.9549428405e-01 -4.6487817326e-01
     vertex 1.0000000000e+00 -8.6338852396e-01 -5.0455482570e-01
     vertex 6.1091084904e-01 -9.2136305032e-01 0.0000000000e+00
   endloop
 endfacet
 facet normal  -1.9147171081e-01 -9.4738625666e-01 -2.5651094452e-01
   outer loop
     vertex 1.0000000000e+00 -8.6338852396e-01 -5.0455482570e-01
     vertex 1.0000000000e+00 -1.0000000000e+00 0.0000000000e+00
     vertex 6.1091084904e-01 -9.2136305032e-01 0.0000000000e+00
   endloop
 endfacet
 facet normal  -1.9147171081e-01 -9.4738625666e-01 2.5651094452e-01
   outer loop
     vertex 6.1091084904e-01 -9.2136305032e-01 0.0000000000e+00
     vertex 1.0000000000e+00 -1.0000000000e+00 0.0000000000e+00
     vertex 1.0000000000e+00 -8.6338852396e-01 5.0455482570e-01
   endloop
 endfacet
 facet normal  -1.9147171081e-01 -9.4738625666e-01 2.5651094452e-01
   outer loop
     vertex 6.1091084904e-01 -9.2136305032e-01 0.0000000000e+00
     vertex 1.0000000000e+00 -8.6338852396e-01 5.0455482570e-01
     vertex 6.1091084904e-01 -7.9549428405e-01 4.6487817326e-01
   endloop
 endfacet
 facet normal  -1.9186090885e-01 -6.9397024131e-01 6.9397024131e-01
   outer loop
     vertex 6.1091084904e-01 -7.9549428405e-01 4.6487817326e-01
     vertex 1.0000000000e+00 -8.6338852396e-01 5.0455482570e-01
     vertex 1.0000000000e+00 -5.0455482570e-01 8.6338852396e-01
   endloop
 endfacet
 facet normal  -1.9186090885e-01 -6.9397024131e-01 6.9397024131e-01
   outer loop
     vertex 6.1091084904e-01 -7.9549428405e-01 4.6487817326e-01
     vertex 1.0000000000e+00 -5.0455482570e-01 8.6338852396e-01
     vertex 6.1091084904e-01 -4.6487817326e-01 7.9549428405e-01
   endloop
 endfacet
 facet normal  -1.9147171081e-01 -2.5651094452e-01 9.4738625666e-01
   outer loop
     vertex 6.1091084904e-01 -4.6487817326e-01 7.9549428405e-01
     vertex 1.0000000000e+00 -5.0455482570e-01 8.6338852396e-01
     vertex 1.0000000000e+00 0.0000000000e+00 1.0000000000e+00
   endloop
 endfacet
 facet normal  -1.9147171081e-01 -2.5651094452e-01 9.4738625666e-01
   outer loop
     vertex 6.1091084904e-01 -4.6487817326e-01 7.9549428405e-01
     vertex 1.0000000000e+00 0.0000000000e+00 1.0000000000e+00
     vertex 6.1091084904e-01 0.0000000000e+00 9.2136305032e-01
   endloop
 endfacet
 facet normal  -1.9147171081e-01 2.5651094452e-01 9.4738625666e-01
   outer loop
     vertex 6.1091084904e-01 0.0000000000e+00 9.2136305032e-01
     vertex 1.0000000000e+00 0.0000000000e+00 1.0000000000e+00
     vertex 6.1091084904e-01 4.6487817326e-01 7.9549428405e-01
   endloop
 endfacet
 facet normal  -1.9147171081e-01 2.5651094452e-01 9.4738625666e-01
   outer loop
     vertex 1.0000000000e+00 0.0000000000e+00 1.0000000000e+00
     vertex 1.0000000000e+00 5.0455482570e-01 8.6338852396e-01
     vertex 6.1091084904e-01 4.6487817326e-01 7.9549428405e-01
   endloop
 endfacet
 facet normal  -1.9186090885e-01 6.9397024131e-01 6.9397024131e-01
   outer loop
     vertex 6.1091084904e-01 4.6487817326e-01 7.9549428405e-01
     vertex 1.0000000000e+00 5.0455482570e-01 8.6338852396e-01
     vertex 6.1091084904e-01 7.9549428405e-01 4.6487817326e-01
   endloop
 endfacet
 facet normal  -1.9186090885e-01 6.9397024131e-01 6.9397024131e-01
   outer loop
     vertex 1.0000000000e+00 5.0455482570e-01 8.6338852396e-01
     vertex 1.0000000000e+00 8.6338852396e-01 5.0455482570e-01
     vertex 6.1091084904e-01 7.9549428405e-01 4.6487817326e-01
   endloop
 endfacet
 facet normal  -1.9147171081e-01 9.4738625666e-01 2.5651094452e-01
   outer loop
     vertex 6.1091084904e-01 7.9549428405e-01 4.6487817326e-01
     vertex 1.0000000000e+00 8.6338852396e-01 5.0455482570e-01
     vertex 6.1091084904e-01 9.2136305032e-01 0.0000000000e+00
   endloop
 endfacet
 facet normal  -1.9147171081e-01 9.4738625666e-01 2.5651094452e-01
   outer loop
     vertex 1.0000000000e+00 8.6338852396e-01 5.0455482570e-01
     vertex 1.0000000000e+00 1.0000000000e+00 0.0000000000e+00
     vertex 6.1091084904e-01 9.2136305032e-01 0.0000000000e+00
   endloop
 endfacet
 facet normal  1.9147171081e-01 9.4738625666e-01 -2.5651094452e-01
   outer loop
     vertex 1.0000000000e+00 1.0000000000e+00 0.0000000000e+00
     vertex 1.3890891510e+00 9.2136305032e-01 0.0000000000e+00
     vertex 1.3890891510e+00 7.9549428405e-01 -4.6487817326e-01
   endloop
 endfacet
 facet normal  1.9147171081e-01 9.4738625666e-01 -2.5651094452e-01
   outer loop
     vertex 1.0000000000e+00 1.0000000000e+00 0.0000000000e+00
     vertex 1.3890891510e+00 7.9549428405e-01 -4.6487817326e-01
     vertex 1.0000000000e+00 8.6338852396e-01 -5.0455482570e-01
   endloop
 endfacet
 facet normal  1.9186090885e-01 6.9397024131e-01 -6.9397024131e-01
   outer loop
     vertex 1.0000000000e+00 8.6338852396e-01 -5.0455482570e-01
     vertex 1.3890891510e+00 7.9549428405e-01 -4.6487817326e-01
     vertex 1.3890891510e+00 4.6487817326e-01 -7.9549428405e-01
   endloop
 endfacet
 facet normal  1.9186090885e-01 6.9397024131e-01 -6.9397024131e-01
   outer loop
     vertex 1.0000000000e+00 8.6338852396e-01 -5.0455482570e-01
     vertex 1.3890891510e+00 4.6487817326e-01 -7.9549428405e-01
     vertex 1.0000000000e+00 5.0455482570e-01 -8.6338852396e-01
   endloop
 endfacet
 facet normal  1.9147171081e-01 2.5651094452e-01 -9.4738625666e-01
   outer loop
     vertex 1.0000000000e+00 5.0455482570e-01 -8.6338852396e-01
     vertex 1.3890891510e+00 4.6487817326e-01 -7.9549428405e-01
     vertex 1.3890891510e+00 0.0000000000e+00 -9.2136305032e-01
   endloop
 endfacet
 facet normal  1.9147171081e-01 2.5651094452e-01 -9.4738625666e-01
   outer loop
     vertex 1.0000000000e+00 5.0455482570e-01 -8.6338852396e-01
     vertex 1.3890891510e+00 0.0000000000e+00 -9.2136305032e-01
     vertex 1.0000000000e+00 0.0000000000e+00 -1.0000000000e+00
   endloop
 endfacet
 facet normal  1.9147171081e-01 -2.5651094452e-01 -9.4738625666e-01
   outer loop
     vertex 1.0000000000e+00 0.0000000000e+00 -1.0000000000e+00
     vertex 1.3890891510e+00 0.0000000000e+00 -9.2136305032e-01
     vertex 1.0000000000e+00 -5.0455482570e-01 -8.6338852396e-01
   endloop
 endfacet
 facet normal  1.9147171081e-01 -2.5651094452e-01 -9.4738625666e-01
   outer loop
     vertex 1.3890891510e+00 0.0000000000e+00 -9.2136305032e-01
     vertex 1.3890891510e+00 -4.6487817326e-01 -7.9549428405e-01
     vertex 1.0000000000e+00 -5.0455482570e-01 -8.6338852396e-01
   endloop
 endfacet
 facet normal  1.9186090885e-01 -6.9397024131e-01 -6.9397024131e-01
   outer loop
     vertex 1.0000000000e+00 -5.0455482570e-01 -8.6338852396e-01
     vertex 1.3890891510e+00 -4.6487817326e-01 -7.9549428405e-01
     vertex 1.0000000000e+00 -8.6338852396e-01 -5.0455482570e-01
   endloop
 endfacet
 facet normal  1.9186090885e-01 -6.9397024131e-01 -6.9397024131e-01
   outer loop
     vertex 1.3890891510e+00 -4.6487817326e-01 -7.9549428405e-01
     vertex 1.3890891510e+00 -7.9549428405e-01 -4.6487817326e-01
     vertex 1.0000000000e+00 -8.6338852396e-01 -5.0455482570e-01
   endloop
 endfacet
 facet normal  1.9147171081e-01 -9.4738625666e-01 -2.5651094452e-01
   outer loop
     vertex 1.0000000000e+00 -8.6338852396e-01 -5.0455482570e-01
     vertex 1.3890891510e+00 -7.9549428405e-01 -4.6487817326e-01
     vertex 1.0000000000e+00 -1.0000000000e+00 0.0000000000e+00
   endloop
 endfacet
 facet normal  1.9147171081e-01 -9.4738625666e-01 -2.5651094452e-01
   outer loop
     vertex 1.3890891510e+00 -7.9549428405e-01 -4.6487817326e-01
     vertex 1.3890891510e+00 -9.2136305032e-01 0.0000000000e+00
     vertex 1.0000000000e+00 -1.0000000000e+00 0.0000000000e+00
   endloop
 endfacet
 facet normal  1.9147171081e-01 -9.4738625666e-01 2.5651094452e-01
   outer loop
     vertex 1.0000000000e+00 -1.0000000000e+00 0.0000000000e+00
     vertex 1.3890891510e+00 -9.2136305032e-01 0.0000000000e+00
     vertex 1.3890891510e+00 -7.9549428405e-01 4.6487817326e-01
   endloop
 endfacet
 facet normal  1.9147171081e-01 -9.4738625666e-01 2.5651094452e-01
   outer loop
     vertex 1.0000000000e+00 -1.0000000000e+00 0.0000000000e+00
     vertex 1.3890891510e+00 -7.9549428405e-01 4.6487817326e-01
     vertex 1.0000000000e+00 -8.6338852396e-01 5.0455482570e-01
   endloop
 endfacet
 facet normal  1.9186090885e-01 -6.9397024131e-01 6.9397024131e-01
   outer loop
     vertex 1.0000000000e+00 -8.6338852396e-01 5.0455482570e-01
     vertex 1.3890891510e+00 -7.9549428405e-01 4.6487817326e-01
     vertex 1.3890891510e+00 -4.6487817326e-01 7.9549428405e-01
   endloop
 endfacet
 facet normal  1.9186090885e-01 -6.9397024131e-01 6.9397024131e-01
   outer loop
     vertex 1.0000000000e+00 -8.6338852396e-01 5.0455482570e-01
     vertex 1.3890891510e+00 -4.6487817326e-01 7.9549428405e-01
     vertex 1.0000000000e+00 -5.0455482570e-01 8.6338852396e-01
   endloop
 endfacet
 facet normal  1.9147171081e-01 -2.5651094452e-01 9.4738625666e-01
   outer loop
     vertex 1.0000000000e+00 -5.0455482570e-01 8.6338852396e-01
     vertex 1.3890891510e+00 -4.6487817326e-01 7.9549428405e-01
     vertex 1.3890891510e+00 0.0000000000e+00 9.2136305032e-01
   endloop
 endfacet
 facet normal  1.9147171081e-01 -2.5651094452e-01 9.4738625666e-01
   outer loop
     vertex 1.0000000000e+00 -5.0455482570e-01 8.6338852396e-01
     vertex 1.3890891510e+00 0.0000000000e+00 9.2136305032e-01
     vertex 1.0000000000e+00 0.0000000000e+00 1.0000000000e+00
   endloop
 endfacet
 facet normal  1.9147171081e-01 2.5651094452e-01 9.4738625666e-01
   outer loop
     vertex 1.0000000000e+00 0.0000000000e+00 1.0000000000e+00
     vertex 1.3890891510e+00 0.0000000000e+00 9.2136305032e-01
     vertex 1.0000000000e+00 5.0455482570e-01 8.6338852396e-01
   endloop
 endfacet
 facet normal  1.9147171081e-01 2.5651094452e-01 9.4738625666e-01
   outer loop
     vertex 1.3890891510e+00 0.0000000000e+00 9.2136305032e-01
     vertex 1.3890891510e+00 4.6487817326e-01 7.9549428405e-01
     vertex 1.0000000000e+00 5.0455482570e-01 8.6338852396e-01
   endloop
 endfacet
 facet normal  1.9186090885e-01 6.9397024131e-01 6.9397024131e-01
   outer loop
     vertex 1.0000000000e+00 5.0455482570e-01 8.6338852396e-01
     vertex 1.3890891510e+00 4.6487817326e-01 7.9549428405e-01
     vertex 1.0000000000e+00 8.6338852396e-01 5.0455482570e-01
   endloop
 endfacet
 facet normal  1.9186090885e-01 6.9397024131e-01 6.9397024131e-01
   outer loop
     vertex 1.3890891510e+00 4.6487817326e-01 7.9549428405e-01
     vertex 1.3890891510e+00 7.9549428405e-01 4.6487817326e-01
     vertex 1.0000000000e+00 8.6338852396e-01 5.0455482570e-01
   endloop
 endfacet
 facet normal  1.9147171081e-01 9.4738625666e-01 2.5651094452e-01
   outer loop
     vertex 1.0000000000e+00 8.6338852396e-01 5.0455482570e-01
     vertex 1.3890891510e+00 7.9549428405e-01 4.6487817326e-01
     vertex 1.0000000000e+00 1.0000000000e+00 0.0000000000e+00
   endloop
 endfacet
 facet normal  1.9147171081e-01 9.4738625666e-01 2.5651094452e-01
   outer loop
     vertex 1.3890891510e+00 7.9549428405e-01 4.6487817326e-01
     vertex 1.3890891510e+00 9.2136305032e-01 0.0000000000e+00
     vertex 1.0000000000e+00 1.0000000000e+00 0.0000000000e+00
   endloop
 endfacet
 facet normal  5.4558555175e-01 8.0892860512e-01 -2.1902264160e-01
   outer loop
     vertex 1.3890891510e+00 9.2136305032e-01 0.0000000000e+00
     vertex 1.7069681342e+00 7.0696813419e-01 0.0000000000e+00
     vertex 1.7069681342e+00 6.1038817386e-01 -3.5670418372e-01
   endloop
 endfacet
 facet normal  5.4558555175e-01 8.0892860512e-01 -2.1902264160e-01
   outer loop
     vertex 1.3890891510e+00 9.2136305032e-01 0.0000000000e+00
     vertex 1.7069681342e+00 6.1038817386e-01 -3.5670418372e-01
     vertex 1.3890891510e+00 7.9549428405e-01 -4.6487817326e-01
   endloop
 endfacet
 facet normal  5.4639341208e-01 5.9222218771e-01 -5.9222218771e-01
   outer loop
     vertex 1.3890891510e+00 7.9549428405e-01 -4.6487817326e-01
     vertex 1.7069681342e+00 6.1038817386e-01 -3.5670418372e-01
     vertex 1.7069681342e+00 3.5670418372e-01 -6.1038817386e-01
   endloop
 endfacet
 facet normal  5.4639341208e-01 5.9222218771e-01 -5.9222218771e-01
   outer loop
     vertex 1.3890891510e+00 7.9549428405e-01 -4.6487817326e-01
     vertex 1.7069681342e+00 3.5670418372e-01 -6.1038817386e-01
     vertex 1.3890891510e+00 4.6487817326e-01 -7.9549428405e-01
   endloop
 endfacet
 facet normal  5.4558555175e-01 2.1902264160e-01 -8.0892860512e-01
   outer loop
     vertex 1.3890891510e+00 4.6487817326e-01 -7.9549428405e-01
     vertex 1.7069681342e+00 3.5670418372e-01 -6.1038817386e-01
     vertex 1.7069681342e+00 0.0000000000e+00 -7.0696813419e-01
   endloop
 endfacet
 facet normal  5.4558555175e-01 2.1902264160e-01 -8.0892860512e-01
   outer loop
     vertex 1.3890891510e+00 4.6487817326e-01 -7.9549428405e-01
     vertex 1.7069681342e+00 0.0000000000e+00 -7.0696813419e-01
     vertex 1.3890891510e+00 0.0000000000e+00 -9.2136305032e-01
   endloop
 endfacet
 facet normal  5.4558555175e-01 -2.1902264160e-01 -8.0892860512e-01
   outer loop
     vertex 1.3890891510e+00 0.0000000000e+00 -9.2136305032e-01
     vertex 1.7069681342e+00 0.0000000000e+00 -7.0696813419e-01
     vertex 1.3890891510e+00 -4.6487817326e-01 -7.9549428405e-01
   endloop
 endfacet
 facet normal  5.4558555175e-01 -2.1902264160e-01 -8.0892860512e-01
   outer loop
     vertex 1.7069681342e+00 0.0000000000e+00 -7.0696813419e-01
     vertex 1.7069681342e+00 -3.5670418372e-01 -6.1038817386e-01
     vertex 1.3890891510e+00 -4.6487817326e-01 -7.9549428405e-01
   endloop
 endfacet
 facet normal  5.4639341208e-01 -5.9222218771e-01 -5.9222218771e-01
   outer loop
     vertex 1.3890891510e+00 -4.6487817326e-01 -7.9549428405e-01
     vertex 1.7069681342e+00 -3.5670418372e-01 -6.1038817386e-01
     vertex 1.3890891510e+00 -7.9549428405e-01 -4.6487817326e-01
   endloop
 endfacet
 facet normal  5.4639341208e-01 -5.9222218771e-01 -5.9222218771e-01
   outer loop
     vertex 1.7069681342e+00 -3.5670418372e-01 -6.1038817386e-01
     vertex 1.7069681342e+00 -6.1038817386e-01 -3.5670418372e-01
     vertex 1.3890891510e+00 -7.9549428405e-01 -4.6487817326e-01
   endloop
 endfacet
 facet normal  5.4558555175e-01 -8.0892860512e-01 -2.1902264160e-01
   outer loop
     vertex 1.3890891510e+00 -7.9549428405e-01 -4.6487817326e-01
     vertex 1.7069681342e+00 -6.1038817386e-01 -3.5670418372e-01
     vertex 1.3890891510e+00 -9.2136305032e-01 0.0000000000e+00
   endloop
 endfacet
 facet normal  5.4558555175e-01 -8.0892860512e-01 -2.1902264160e-01
   outer loop
     vertex 1.7069681342e+00 -6.1038817386e-01 -3.5670418372e-01
     vertex 1.7069681342e+00 -7.0696813419e-01 0.0000000000e+00
     vertex 1.3890891510e+00 -9.2136305032e-01 0.0000000000e+00
   endloop
 endfacet
 facet normal  5.4558555175e-01 -8.0892860512e-01 2.1902264160e-01
   outer loop
     vertex 1.3890891510e+00 -9.2136305032e-01 0.0000000000e+00
     vertex 1.7069681342e+00 -7.0696813419e-01 0.0000000000e+00
     vertex 1.7069681342e+00 -6.1038817386e-01 3.5670418372e-01
   endloop
 endfacet
 facet normal  5.4558555175e-01 -8.0892860512e-01 2.1902264160e-01
   outer loop
     vertex 1.3890891510e+00 -9.2136305032e-01 0.0000000000e+00
     vertex 1.7069681342e+00 -6.1038817386e-01 3.5670418372e-01
     vertex 1.3890891510e+00 -7.9549428405e-01 4.6487817326e-01
   endloop
 endfacet
 facet normal  5.4639341208e-01 -5.9222218771e-01 5.9222218771e-01
   outer loop
     vertex 1.3890891510e+00 -7.9549428405e-01 4.6487817326e-01
     vertex 1.7069681342e+00 -6.1038817386e-01 3.5670418372e-01
     vertex 1.7069681342e+00 -3.5670418372e-01 6.1038817386e-01
   endloop
 endfacet
 facet normal  5.4639341208e-01 -5.9222218771e-01 5.9222218771e-01
   outer loop
     vertex 1.3890891510e+00 -7.9549428405e-01 4.6487817326e-01
     vertex 1.7069681342e+00 -3.5670418372e-01 6.1038817386e-01
     vertex 1.3890891510e+00 -4.6487817326e-01 7.9549428405e-01
   endloop
 endfacet
 facet normal  5.4558555175e-01 -2.1902264160e-01 8.0892860512e-01
   outer loop
     vertex 1.3890891510e+00 -4.6487817326e-01 7.9549428405e-01
     vertex 1.7069681342e+00 -3.5670418372e-01 6.1038817386e-01
     vertex 1.7069681342e+00 0.0000000000e+00 7.0696813419e-01
   endloop
 endfacet
 facet normal  5.4558555175e-01 -2.1902264160e-01 8.0892860512e-01
   outer loop
     vertex 1.3890891510e+00 -4.6487817326e-01 7.9549428405e-01
     vertex 1.7069681342e+00 0.0000000000e+00 7.0696813419e-01
     vertex 1.3890891510e+00 0.0000000000e+00 9.2136305032e-01
   endloop
 endfacet
 facet normal  5.4558555175e-01 2.1902264160e-01 8.0892860512e-01
   outer loop
     vertex 1.3890891510e+00 0.0000000000e+00 9.2136305032e-01
     vertex 1.7069681342e+00 0.0000000000e+00 7.0696813419e-01
     vertex 1.3890891510e+00 4.6487817326e-01 7.9549428405e-01
   endloop
 endfacet
 facet normal  5.4558555175e-01 2.1902264160e-01 8.0892860512e-01
   outer loop
     vertex 1.7069681342e+00 0.0000000000e+00 7.0696813419e-01
     vertex 1.7069681342e+00 3.5670418372e-01 6.1038817386e-01
     vertex 1.3890891510e+00 4.6487817326e-01 7.9549428405e-01
   endloop
 endfacet
 facet normal  5.4639341208e-01 5.9222218771e-01 5.9222218771e-01
   outer loop
     vertex 1.3890891510e+00 4.6487817326e-01 7.9549428405e-01
     vertex 1.7069681342e+00 3.5670418372e-01 6.1038817386e-01
     vertex 1.3890891510e+00 7.9549428405e-01 4.6487817326e-01
   endloop
 endfacet
 facet normal  5.4639341208e-01 5.9222218771e-01 5.9222218771e-01
   outer loop
     vertex 1.7069681342e+00 3.5670418372e-01 6.1038817386e-01
     vertex 1.7069681342e+00 6.1038817386e-01 3.5670418372e-01
     vertex 1.3890891510e+00 7.9549428405e-01 4.6487817326e-01
   endloop
 endfacet
 facet normal  5.4558555175e-01 8.0892860512e-01 2.1902264160e-01
   outer loop
     vertex 1.3890891510e+00 7.9549428405e-01 4.6487817326e-01
     vertex 1.7069681342e+00 6.1038817386e-01 3.5670418372e-01
     vertex 1.3890891510e+00 9.2136305032e-01 0.0000000000e+00
   endloop
 endfacet
 facet normal  5.4558555175e-01 8.0892860512e-01 2.1902264160e-01
   outer loop
     vertex 1.7069681342e+00 6.1038817386e-01 3.5670418372e-01
     vertex 1.7069681342e+00 7.0696813419e-01 0.0000000000e+00
     vertex 1.3890891510e+00 9.2136305032e-01 0.0000000000e+00
   endloop
 endfacet
 facet normal  8.1971719037e-01 5.5286196180e-01 -1.4969094497e-01
   outer loop
     vertex 1.7069681342e+00 7.0696813419e-01 0.0000000000e+00
     vertex 1.9213630503e+00 3.8908915096e-01 0.0000000000e+00
     vertex 1.9213630503e+00 3.3593510774e-01 -1.9631680874e-01
   endloop
 endfacet
 facet normal  8.1971719037e-01 5.5286196180e-01 -1.4969094497e-01
   outer loop
     vertex 1.7069681342e+00 7.0696813419e-01 0.0000000000e+00
     vertex 1.9213630503e+00 3.3593510774e-01 -1.9631680874e-01
     vertex 1.7069681342e+00 6.1038817386e-01 -3.5670418372e-01
   endloop
 endfacet
 facet normal  8.2028347735e-01 4.0443480116e-01 -4.0443480116e-01
   outer loop
     vertex 1.7069681342e+00 6.1038817386e-01 -3.5670418372e-01
     vertex 1.9213630503e+00 3.3593510774e-01 -1.9631680874e-01
     vertex 1.9213630503e+00 1.9631680874e-01 -3.3593510774e-01
   endloop
 endfacet
 facet normal  8.2028347735e-01 4.0443480116e-01 -4.0443480116e-01
   outer loop
     vertex 1.7069681342e+00 6.1038817386e-01 -3.5670418372e-01
     vertex 1.9213630503e+00 1.9631680874e-01 -3.3593510774e-01
     vertex 1.7069681342e+00 3.5670418372e-01 -6.1038817386e-01
   endloop
 endfacet
 facet normal  8.1971719037e-01 1.4969094497e-01 -5.5286196180e-01
   outer loop
     vertex 1.7069681342e+00 3.5670418372e-01 -6.1038817386e-01
     vertex 1.9213630503e+00 1.9631680874e-01 -3.3593510774e-01
     vertex 1.9213630503e+00 0.0000000000e+00 -3.8908915096e-01
   endloop
 endfacet
 facet normal  8.1971719037e-01 1.4969094497e-01 -5.5286196180e-01
   outer loop
     vertex 1.7069681342e+00 3.5670418372e-01 -6.1038817386e-01
     vertex 1.9213630503e+00 0.0000000000e+00 -3.8908915096e-01
     vertex 1.7069681342e+00 0.0000000000e+00 -7.0696813419e-01
   endloop
 endfacet
 facet normal  8.1971719037e-01 -1.4969094497e-01 -5.5286196180e-01
   outer loop
     vertex 1.7069681342e+00 0.0000000000e+00 -7.0696813419e-01
     vertex 1.9213630503e+00 0.0000000000e+00 -3.8908915096e-01
     vertex 1.7069681342e+00 -3.5670418372e-01 -6.1038817386e-01
   endloop
 endfacet
 facet normal  8.1971719037e-01 -1.4969094497e-01 -5.5286196180e-01
   outer loop
     vertex 1.9213630503e+00 0.0000000000e+00 -3.8908915096e-01
     vertex 1.9213630503e+00 -1.9631680874e-01 -3.3593510774e-01
     vertex 1.7069681342e+00 -3.5670418372e-01 -6.1038817386e-01
   endloop
 endfacet
 facet normal  8.2028347735e-01 -4.0443480116e-01 -4.0443480116e-01
   outer loop
     vertex 1.7069681342e+00 -3.5670418372e-01 -6.1038817386e-01
     vertex 1.9213630503e+00 -1.9631680874e-01 -3.3593510774e-01
     vertex 1.7069681342e+00 -6.1038817386e-01 -3.5670418372e-01
   endloop
 endfacet
 facet normal  8.2028347735e-01 -4.0443480116e-01 -4.0443480116e-01
   outer loop
     vertex 1.9213630503e+00 -1.9631680874e-01 -3.3593510774e-01
     vertex 1.9213630503e+00 -3.3593510774e-01 -1.9631680874e-01
     vertex 1.7069681342e+00 -6.1038817386e-01 -3.5670418372e-01
   endloop
 endfacet
 facet normal  8.1971719037e-01 -5.5286196180e-01 -1.4969094497e-01
   outer loop
     vertex 1.7069681342e+00 -6.1038817386e-01 -3.5670418372e-01
     vertex 1.9213630503e+00 -3.3593510774e-01 -1.9631680874e-01
     vertex 1.7069681342e+00 -7.0696813419e-01 0.0000000000e+00
   endloop
 endfacet
 facet normal  8.1971719037e-01 -5.5286196180e-01 -1.4969094497e-01
   outer loop
     vertex 1.9213630503e+00 -3.3593510774e-01 -1.9631680874e-01
     vertex 1.9213630503e+00 -3.8908915096e-01 0.0000000000e+00
     vertex 1.7069681342e+00 -7.0696813419e-01 0.0000000000e+00
   endloop
 endfacet
 facet normal  8.1971719037e-01 -5.5286196180e-01 1.4969094497e-01
   outer loop
     vertex 1.7069681342e+00 -7.0696813419e-01 0.0000000000e+00
     vertex 1.9213630503e+00 -3.8908915096e-01 0.0000000000e+00
     vertex 1.9213630503e+00 -3.3593510774e-01 1.9631680874e-01
   endloop
 endfacet
 facet normal  8.1971719037e-01 -5.5286196180e-01 1.4969094497e-01
   outer loop
     vertex 1.7069681342e+00 -7.0696813419e-01 0.0000000000e+00
     vertex 1.9213630503e+00 -3.3593510774e-01 1.9631680874e-01
     vertex 1.7069681342e+00 -6.1038817386e-01 3.5670418372e-01
   endloop
 endfacet
 facet normal  8.2028347735e-01 -4.0443480116e-01 4.0443480116e-01
   outer loop
     vertex 1.7069681342e+00 -6.1038817386e-01 3.5670418372e-01
     vertex 1.9213630503e+00 -3.3593510774e-01 1.9631680874e-01
     vertex 1.9213630503e+00 -1.9631680874e-01 3.3593510774e-01
   endloop
 endfacet
 facet normal  8.2028347735e-01 -4.0443480116e-01 4.0443480116e-01
   outer loop
     vertex 1.7069681342e+00 -6.1038817386e-01 3.5670418372e-01
     vertex 1.9213630503e+00 -1.9631680874e-01 3.3593510774e-01
     vertex 1.7069681342e+00 -3.5670418372e-01 6.1038817386e-01
   endloop
 endfacet
 facet normal  8.1971719037e-01 -1.4969094497e-01 5.5286196180e-01
   outer loop
     vertex 1.7069681342e+00 -3.5670418372e-01 6.1038817386e-01
     vertex 1.9213630503e+00 -1.9631680874e-01 3.3593510774e-01
     vertex 1.9213630503e+00 0.0000000000e+00 3.8908915096e-01
   endloop
 endfacet
 facet normal  8.1971719037e-01 -1.4969094497e-01 5.5286196180e-01
   outer loop
     vertex 1.7069681342e+00 -3.5670418372e-01 6.1038817386e-01
     vertex 1.9213630503e+00 0.0000000000e+00 3.8908915096e-01
     vertex 1.7069681342e+00 0.0000000000e+00 7.0696813419e-01
   endloop
 endfacet
 facet normal  8.1971719037e-01 1.4969094497e-01 5.5286196180e-01
   outer loop
     vertex 1.7069681342e+00 0.0000000000e+00 7.0696813419e-01
     vertex 1.9213630503e+00 0.0000000000e+00 3.8908915096e-01
     vertex 1.7069681342e+00 3.5670418372e-01 6.1038817386e-01
   endloop
 endfacet
 facet normal  8.1971719037e-01 1.4969094497e-01 5.5286196180e-01
   outer loop
     vertex 1.9213630503e+00 0.0000000000e+00 3.8908915096e-01
     vertex 1.9213630503e+00 1.9631680874e-01 3.3593510774e-01
     vertex 1.7069681342e+00 3.5670418372e-01 6.1038817386e-01
   endloop
 endfacet
 facet normal  8.2028347735e-01 4.0443480116e-01 4.0443480116e-01
   outer loop
     vertex 1.7069681342e+00 3.5670418372e-01 6.1038817386e-01
     vertex 1.9213630503e+00 1.9631680874e-01 3.3593510774e-01
     vertex 1.7069681342e+00 6.1038817386e-01 3.5670418372e-01
   endloop
 endfacet
 facet normal  8.2028347735e-01 4.0443480116e-01 4.0443480116e-01
   outer loop
     vertex 1.9213630503e+00 1.9631680874e-01 3.3593510774e-01
     vertex 1.9213630503e+00 3.3593510774e-01 1.9631680874e-01
     vertex 1.7069681342e+00 6.1038817386e-01 3.5670418372e-01
   endloop
 endfacet
 facet normal  8.1971719037e-01 5.5286196180e-01 1.4969094497e-01
   outer loop
     vertex 1.7069681342e+00 6.1038817386e-01 3.5670418372e-01
     vertex 1.9213630503e+00 3.3593510774e-01 1.9631680874e-01
     vertex 1.7069681342e+00 7.0696813419e-01 0.0000000000e+00
   endloop
 endfacet
 facet normal  8.1971719037e-01 5.5286196180e-01 1.4969094497e-01
   outer loop
     vertex 1.9213630503e+00 3.3593510774e-01 1.9631680874e-01
     vertex 1.9213630503e+00 3.8908915096e-01 0.0000000000e+00
     vertex 1.7069681342e+00 7.0696813419e-01 0.0000000000e+00
   endloop
 endfacet
 facet normal  9.7877492940e-01 1.9781552552e-01 -5.3559830465e-02
   outer loop
     vertex 1.9213630503e+00 3.8908915096e-01 0.0000000000e+00
     vertex 2.0000000000e+00 0.0000000000e+00 0.0000000000e+00
     vertex 1.9213630503e+00 3.3593510774e-01 -1.9631680874e-01
   endloop
 endfacet
 facet normal  9.7886141632e-01 1.4462075862e-01 -1.4462075862e-01
   outer loop
     vertex 1.9213630503e+00 3.3593510774e-01 -1.9631680874e-01
     vertex 2.0000000000e+00 0.0000000000e+00 0.0000000000e+00
     vertex 1.9213630503e+00 1.9631680874e-01 -3.3593510774e-01
   endloop
 endfacet
 facet normal  9.7877492940e-01 5.3559830465e-02 -1.9781552552e-01
   outer loop
     vertex 1.9213630503e+00 1.9631680874e-01 -3.3593510774e-01
     vertex 2.0000000000e+00 0.0000000000e+00 0.0000000000e+00
     vertex 1.9213630503e+00 0.0000000000e+00 -3.8908915096e-01
   endloop
 endfacet
 facet normal  9.7877492940e-01 -5.3559830465e-02 -1.9781552552e-01
   outer loop
     vertex 1.9213630503e+00 0.0000000000e+00 -3.8908915096e-01
     vertex 2.0000000000e+00 0.0000000000e+00 0.0000000000e+00
     vertex 1.9213630503e+00 -1.9631680874e-01 -3.3593510774e-01
   endloop
 endfacet
 facet normal  9.7886141632e-01 -1.4462075862e-01 -1.4462075862e-01
   outer loop
     vertex 1.9213630503e+00 -1.9631680874e-01 -3.3593510774e-01
     vertex 2.0000000000e+00 0.0000000000e+00 0.0000000000e+00
     vertex 1.9213630503e+00 -3.3593510774e-01 -1.9631680874e-01
   endloop
 endfacet
 facet normal  9.7877492940e-01 -1.9781552552e-01 -5.3559830465e-02
   outer loop
     vertex 1.9213630503e+00 -3.3593510774e-01 -1.9631680874e-01
     vertex 2.0000000000e+00 0.0000000000e+00 0.0000000000e+00
     vertex 1.9213630503e+00 -3.8908915096e-01 0.0000000000e+00
   endloop
 endfacet
 facet normal  9.7877492940e-01 -1.9781552552e-01 5.3559830465e-02
   outer loop
     vertex 1.9213630503e+00 -3.8908915096e-01 0.0000000000e+00
     vertex 2.0000000000e+00 0.0000000000e+00 0.0000000000e+00
     vertex 1.9213630503e+00 -3.3593510774e-01 1.9631680874e-01
   endloop
 endfacet
 facet normal  9.7886141632e-01 -1.4462075862e-01 1.4462075862e-01
   outer loop
     vertex 1.9213630503e+00 -3.3593510774e-01 1.9631680874e-01
     vertex 2.0000000000e+00 0.0000000000e+00 0.0000000000e+00
     vertex 1.9213630503e+00 -1.9631680874e-01 3.3593510774e-01
   endloop
 endfacet
 facet normal  9.7877492940e-01 -5.3559830465e-02 1.9781552552e-01
   outer loop
     vertex 1.9213630503e+00 -1.9631680874e-01 3.3593510774e-01
     vertex 2.0000000000e+00 0.0000000000e+00 0.0000000000e+00
     vertex 1.9213630503e+00 0.0000000000e+00 3.8908915096e-01
   endloop
 endfacet
 facet normal  9.7877492940e-01 5.3559830465e-02 1.9781552552e-01
   outer loop
     vertex 1.9213630503e+00 0.0000000000e+00 3.8908915096e-01
     vertex 2.0000000000e+00 0.0000000000e+00 0.0000000000e+00
     vertex 1.9213630503e+00 1.9631680874e-01 3.3593510774e-01
   endloop
 endfacet
 facet normal  9.7886141632e-01 1.4462075862e-01 1.4462075862e-01
   outer loop
     vertex 1.9213630503e+00 1.9631680874e-01 3.3593510774e-01
     vertex 2.0000000000e+00 0.0000000000e+00 0.0000000000e+00
     vertex 1.9213630503e+00 3.3593510774e-01 1.9631680874e-01
   endloop
 endfacet
 facet normal  9.7877492940e-01 1.9781552552e-01 5.3559830465e-02
   outer loop
     vertex 1.9213630503e+00 3.3593510774e-01 1.9631680874e-01
     vertex 2.0000000000e+00 0.0000000000e+00 0.0000000000e+00
     vertex 1.9213630503e+00 3.8908915096e-01 0.0000000000e+00
   endloop
 endfacet
endsolid
